HIERARCHY
ROOT Hips
{
	OFFSET 0.00000 0.00000 0.00000
	CHANNELS 6 Xposition Yposition Zposition Zrotation Yrotation Xrotation 
	JOINT LHipJoint
	{
		OFFSET 0 0 0
		CHANNELS 3 Zrotation Yrotation Xrotation
		JOINT LeftUpLeg
		{
			OFFSET 1.28366 -1.58472 0.87544
			CHANNELS 3 Zrotation Yrotation Xrotation
			JOINT LeftLeg
			{
				OFFSET 2.18587 -6.00562 0.00000
				CHANNELS 3 Zrotation Yrotation Xrotation
				JOINT LeftFoot
				{
					OFFSET 2.39085 -6.56880 0.00000
					CHANNELS 3 Zrotation Yrotation Xrotation
					JOINT LeftToeBase
					{
						OFFSET 0.12003 -0.32979 2.03101
						CHANNELS 3 Zrotation Yrotation Xrotation
						End Site
						{
							OFFSET 0.00000 -0.00000 1.04074
						}
					}
				}
			}
		}
	}
	JOINT RHipJoint
	{
		OFFSET 0 0 0
		CHANNELS 3 Zrotation Yrotation Xrotation
		JOINT RightUpLeg
		{
			OFFSET -1.21795 -1.58472 0.87544
			CHANNELS 3 Zrotation Yrotation Xrotation
			JOINT RightLeg
			{
				OFFSET -2.22714 -6.11902 0.00000
				CHANNELS 3 Zrotation Yrotation Xrotation
				JOINT RightFoot
				{
					OFFSET -2.40306 -6.60235 0.00000
					CHANNELS 3 Zrotation Yrotation Xrotation
					JOINT RightToeBase
					{
						OFFSET -0.15519 -0.42640 1.91430
						CHANNELS 3 Zrotation Yrotation Xrotation
						End Site
						{
							OFFSET -0.00000 -0.00000 0.99082
						}
					}
				}
			}
		}
	}
	JOINT LowerBack
	{
		OFFSET 0 0 0
		CHANNELS 3 Zrotation Yrotation Xrotation
		JOINT Spine
		{
			OFFSET 0.01180 1.76430 -0.06387
			CHANNELS 3 Zrotation Yrotation Xrotation
			JOINT Spine1
			{
				OFFSET -0.00388 1.74651 0.09536
				CHANNELS 3 Zrotation Yrotation Xrotation
				JOINT Neck
				{
					OFFSET 0 0 0
					CHANNELS 3 Zrotation Yrotation Xrotation
					JOINT Neck1
					{
						OFFSET 0.04111 1.46174 0.14397
						CHANNELS 3 Zrotation Yrotation Xrotation
						JOINT Head
						{
							OFFSET 0.00502 1.44580 -0.31711
							CHANNELS 3 Zrotation Yrotation Xrotation
							End Site
							{
								OFFSET -0.00395 1.49251 -0.12327
							}
						}
					}
				}
				JOINT LeftShoulder
				{
					OFFSET 0 0 0
					CHANNELS 3 Zrotation Yrotation Xrotation
					JOINT LeftArm
					{
						OFFSET 2.70917 1.34870 -0.15417
						CHANNELS 3 Zrotation Yrotation Xrotation
						JOINT LeftForeArm
						{
							OFFSET 4.46610 -0.00000 -0.00000
							CHANNELS 3 Zrotation Yrotation Xrotation
							JOINT LeftHand
							{
								OFFSET 3.41414 -0.00000 0.00000
								CHANNELS 3 Zrotation Yrotation Xrotation
								JOINT LeftFingerBase
								{
									OFFSET 0 0 0
									CHANNELS 3 Zrotation Yrotation Xrotation
									JOINT LeftHandIndex1
									{
										OFFSET 0.32830 -0.00000 0.00000
										CHANNELS 3 Zrotation Yrotation Xrotation
										End Site
										{
											OFFSET 0.26468 -0.00000 0.00000
										}
									}
								}
								JOINT LThumb
								{
									OFFSET 0 0 0
									CHANNELS 3 Zrotation Yrotation Xrotation
									End Site
									{
										OFFSET 0.26872 -0.00000 0.26872
									}
								}
							}
						}
					}
				}
				JOINT RightShoulder
				{
					OFFSET 0 0 0
					CHANNELS 3 Zrotation Yrotation Xrotation
					JOINT RightArm
					{
						OFFSET -3.06316 1.13725 -0.10883
						CHANNELS 3 Zrotation Yrotation Xrotation
						JOINT RightForeArm
						{
							OFFSET -4.40431 -0.00000 0.00000
							CHANNELS 3 Zrotation Yrotation Xrotation
							JOINT RightHand
							{
								OFFSET -3.04688 -0.00000 0.00000
								CHANNELS 3 Zrotation Yrotation Xrotation
								JOINT RightFingerBase
								{
									OFFSET 0 0 0
									CHANNELS 3 Zrotation Yrotation Xrotation
									JOINT RightHandIndex1
									{
										OFFSET -0.50049 -0.00000 0.00000
										CHANNELS 3 Zrotation Yrotation Xrotation
										End Site
										{
											OFFSET -0.40351 -0.00000 0.00000
										}
									}
								}
								JOINT RThumb
								{
									OFFSET 0 0 0
									CHANNELS 3 Zrotation Yrotation Xrotation
									End Site
									{
										OFFSET -0.40967 -0.00000 0.40967
									}
								}
							}
						}
					}
				}
			}
		}
	}
}
MOTION
Frames: 11
Frame Time: .0083333
-9.9068 14.7280 2.5013 -178.7620 5.1265 1263.5900 0.0000 0.0000 0.0000 -14.8476 12.4266 -36.8768 8.4001 16.4058 53.9913 0.8658 -8.4033 -16.7428 0.4111 -4.1159 -11.4031 0.0000 0.0000 0.0000 22.9129 -16.1984 -39.6031 -8.2317 -16.2870 53.3929 -0.8640 -12.9048 -26.5390 -0.6350 -5.0985 14.1898 0.8563 3.2771 3.5915 -0.1569 4.9330 -7.3769 -1.2614 2.5171 -9.7379 -0.1942 -0.8059 -15.7440 -0.3191 -1.3004 18.7760 -0.2471 -0.7879 8.4412 -0.0000 -0.0000 0.0000 -59.1962 -44.7881 68.1109 131.1355 -52.5272 -94.7298 -0.0000 0.0000 -82.9970 6.5058 21.6383 2.4079 -7.1250 0.0000 -0.0000 -22.0583 50.3986 -3.0650 -0.0000 -0.0000 0.0000 66.4028 28.2648 58.5372 -110.3768 58.3715 -77.5504 0.0000 -0.0000 -94.3651 -6.1970 -3.0585 0.3319 7.1250 -0.0000 -0.0000 16.4197 -32.7271 5.1190
-9.9248 14.7475 2.5156 -178.7880 4.6835 1263.6500 0.0000 0.0000 0.0000 -14.7201 12.3515 -37.1072 8.4775 16.4595 54.2649 0.8244 -9.0941 -16.4590 0.5472 -4.7390 -13.1657 0.0000 0.0000 0.0000 22.8384 -16.1063 -39.5302 -8.1451 -16.2249 53.0835 -0.7902 -13.4006 -26.4588 -0.6613 -5.2008 14.4823 0.5508 3.2946 3.5647 -0.1766 4.9279 -7.3554 -1.1102 2.5366 -9.7215 -0.1017 -0.7710 -15.8553 -0.0644 -1.3181 18.7000 -0.1786 -0.7581 8.4368 -0.0000 -0.0000 0.0000 -55.9430 -43.4761 64.8780 132.6227 -51.8814 -95.9051 -0.0000 0.0000 -82.6237 5.8836 21.4000 2.1534 -7.1250 0.0000 -0.0000 -22.5162 50.0822 -2.9527 -0.0000 -0.0000 0.0000 64.9328 27.2166 56.6302 -111.5538 58.1697 -78.5514 0.0000 -0.0000 -93.6491 -5.8695 -3.2086 0.3297 7.1250 -0.0000 -0.0000 16.7051 -32.8586 5.1594
-9.9454 14.7693 2.5309 -178.7850 4.2975 1263.6900 0.0000 0.0000 0.0000 -14.5221 12.2096 -37.2590 8.5767 16.5275 54.6145 0.7827 -9.6446 -16.1718 0.6401 -5.1187 -14.2473 0.0000 0.0000 0.0000 22.7709 -15.9925 -39.3947 -8.0475 -16.1540 52.7334 -0.7125 -13.8685 -26.3313 -0.6922 -5.3188 14.8201 0.3082 3.3045 3.5838 -0.2113 4.9138 -7.3225 -1.0111 2.5448 -9.7136 -0.0009 -0.7317 -15.9670 0.2366 -1.3421 18.6071 -0.0966 -0.7261 8.4272 -0.0000 -0.0000 0.0000 -52.5247 -41.9366 61.4461 133.8782 -51.3064 -96.8890 -0.0000 0.0000 -82.1572 5.1922 21.1131 1.8747 -7.1250 0.0000 -0.0000 -23.0112 49.7139 -2.8069 -0.0000 -0.0000 0.0000 63.3884 26.0676 54.6007 -112.6265 57.9743 -79.4618 0.0000 -0.0000 -92.9769 -5.6052 -3.3221 0.3259 7.1250 -0.0000 -0.0000 16.9345 -32.9572 5.1936
-9.9698 14.7930 2.5470 -178.7450 3.9697 1263.7000 0.0000 0.0000 0.0000 -14.2507 11.9774 -37.3029 8.6959 16.6080 55.0323 0.7502 -9.9336 -15.9296 0.6811 -5.2767 -14.6995 0.0000 0.0000 0.0000 22.7150 -15.8757 -39.2163 -7.9431 -16.0772 52.3574 -0.6307 -14.2942 -26.1371 -0.7205 -5.4242 15.1226 0.1500 3.3096 3.6400 -0.2554 4.8972 -7.2812 -0.9703 2.5437 -9.7105 0.1031 -0.6896 -16.0668 0.5688 -1.3705 18.4950 -0.0052 -0.6932 8.4094 -0.0000 -0.0000 0.0000 -49.0285 -40.1733 57.9122 134.8309 -50.8511 -97.6302 -0.0000 0.0000 -81.5177 4.4182 20.7407 1.5674 -7.1250 0.0000 -0.0000 -23.5354 49.2566 -2.6009 -0.0000 -0.0000 0.0000 61.7730 24.8237 52.4543 -113.5360 57.7998 -80.2322 0.0000 -0.0000 -92.3658 -5.4228 -3.3987 0.3224 7.1250 -0.0000 -0.0000 17.0927 -33.0231 5.2175
-9.9989 14.8182 2.5640 -178.6640 3.7005 1263.6800 0.0000 0.0000 0.0000 -13.9018 11.6343 -37.2126 8.8333 16.6992 55.5117 0.7334 -9.9058 -15.7665 0.6604 -5.1976 -14.4729 0.0000 0.0000 0.0000 22.6707 -15.7714 -39.0156 -7.8373 -15.9983 51.9745 -0.5475 -14.6457 -25.8555 -0.7447 -5.5123 15.3758 0.0792 3.3137 3.7218 -0.3005 4.8842 -7.2314 -0.9804 2.5370 -9.7058 0.1895 -0.6491 -16.1444 0.9374 -1.4049 18.3562 0.1007 -0.6614 8.3793 -0.0000 0.0000 0.0000 -45.5253 -38.2000 54.3628 135.4293 -50.5565 -98.0932 -0.0000 0.0000 -80.6415 3.5043 20.2816 1.2160 -7.1250 0.0000 -0.0000 -24.1406 48.7050 -2.3313 -0.0000 0.0000 0.0000 60.0754 23.4890 50.1887 -114.2498 57.6570 -80.8357 0.0000 -0.0000 -91.8111 -5.3432 -3.4419 0.3217 7.1250 -0.0000 -0.0000 17.1636 -33.0612 5.2244
-10.0333 14.8445 2.5818 -178.5380 3.4956 1263.6600 0.0000 0.0000 0.0000 -13.4723 11.1717 -36.9694 8.9857 16.7985 56.0406 0.7354 -9.5384 -15.7082 0.5884 -4.9111 -13.6551 0.0000 0.0000 0.0000 22.6381 -15.6841 -38.8133 -7.7366 -15.9221 51.6085 -0.4596 -14.9238 -25.4527 -0.7525 -5.5406 15.4571 0.0935 3.3205 3.8234 -0.3363 4.8815 -7.1769 -1.0300 2.5288 -9.7014 0.2680 -0.6097 -16.1972 1.3097 -1.4402 18.1989 0.2089 -0.6314 8.3389 -0.0000 -0.0000 0.0000 -42.0878 -36.0286 50.8808 135.6258 -50.4582 -98.2449 -0.0000 0.0000 -79.4831 2.4044 19.7432 0.8127 -7.1250 0.0000 -0.0000 -24.8688 48.0610 -1.9940 -0.0000 -0.0000 0.0000 58.3042 22.0721 47.8233 -114.7098 57.5623 -81.2242 0.0000 -0.0000 -91.2948 -5.2985 -3.4877 0.3233 7.1250 -0.0000 -0.0000 17.2077 -33.1032 5.2206
-10.0737 14.8715 2.6003 -178.3630 3.3604 1263.6100 0.0000 0.0000 0.0000 -12.9564 10.5927 -36.5584 9.1475 16.9017 56.5990 0.7505 -8.8967 -15.7327 0.4684 -4.3896 -12.1755 0.0000 0.0000 0.0000 22.6176 -15.6202 -38.6250 -7.6489 -15.8548 51.2879 -0.3673 -15.1139 -24.9014 -0.7402 -5.4962 15.3294 0.1918 3.3342 3.9455 -0.3512 4.8956 -7.1153 -1.1068 2.5228 -9.6959 0.3298 -0.5731 -16.2355 1.6731 -1.4733 18.0292 0.3169 -0.6036 8.2920 -0.0000 0.0000 0.0000 -38.7648 -33.6795 47.5345 135.4082 -50.5669 -98.0770 -0.0000 0.0000 -78.0507 1.2661 19.1509 0.4154 -7.1250 0.0000 -0.0000 -25.5977 47.3707 -1.5981 -0.0000 0.0000 0.0000 56.4469 20.5847 45.3697 -114.8869 57.5253 -81.3736 0.0000 -0.0000 -90.8023 -5.3222 -3.5310 0.3287 7.1250 -0.0000 -0.0000 17.1978 -33.1458 5.1988
-10.1202 14.8980 2.6194 -178.1380 3.3030 1263.5500 0.0000 0.0000 0.0000 -12.3642 9.9237 -35.9794 9.3084 17.0022 57.1508 0.7720 -8.0535 -15.8154 0.3359 -3.7245 -10.3029 0.0000 0.0000 0.0000 22.6073 -15.5819 -38.4773 -7.5842 -15.8047 51.0508 -0.2682 -15.2211 -24.1702 -0.7015 -5.3536 14.9200 0.3638 3.3564 4.0915 -0.3358 4.9291 -7.0480 -1.1961 2.5215 -9.6948 0.3751 -0.5372 -16.2718 2.0113 -1.4980 17.8614 0.4199 -0.5763 8.2454 -0.0000 0.0000 0.0000 -35.5898 -31.1617 44.3732 134.7681 -50.8816 -97.5815 -0.0000 0.0000 -76.3884 0.1779 18.5211 0.0565 -7.1250 0.0000 -0.0000 -26.2568 46.6606 -1.1542 -0.0000 0.0000 0.0000 54.5144 19.0500 42.8589 -114.7289 57.5583 -81.2403 0.0000 -0.0000 -90.3393 -5.4100 -3.5711 0.3380 7.1250 -0.0000 -0.0000 17.1366 -33.1881 5.1605
-10.1728 14.9228 2.6389 -177.8630 3.3335 1263.4700 0.0000 0.0000 0.0000 -11.7097 9.1986 -35.2335 9.4530 17.0906 57.6439 0.7903 -7.1218 -15.8993 0.2123 -2.9666 -8.1856 0.0000 0.0000 0.0000 22.6038 -15.5751 -38.4006 -7.5547 -15.7818 50.9424 -0.1665 -15.2220 -23.2447 -0.6398 -5.1173 14.2434 0.5968 3.3898 4.2639 -0.2833 4.9857 -6.9740 -1.2843 2.5280 -9.6998 0.4086 -0.4997 -16.3271 2.3066 -1.5094 17.7144 0.5118 -0.5482 8.2089 0.0000 -0.0000 0.0000 -32.5848 -28.4946 41.4354 133.6872 -51.3956 -96.7398 -0.0000 0.0000 -74.5570 -0.7560 17.9144 -0.2326 -7.1250 0.0000 -0.0000 -26.7865 45.9985 -0.7112 0.0000 -0.0000 0.0000 52.5128 17.4903 40.3123 -114.1869 57.6698 -80.7826 0.0000 -0.0000 -89.8779 -5.5118 -3.6405 0.3511 7.1250 -0.0000 -0.0000 17.0703 -33.2589 5.1082
-10.2321 14.9446 2.6588 -177.5670 3.4579 1263.3800 0.0000 0.0000 0.0000 -11.0446 8.4453 -34.3278 9.5597 17.1547 58.0064 0.7986 -6.2017 -15.9343 0.1199 -2.2320 -6.1473 0.0000 0.0000 0.0000 22.5771 -15.6188 -38.4444 -7.5745 -15.7972 51.0153 -0.0698 -15.0808 -22.1240 -0.5688 -4.8303 13.4252 0.8730 3.4331 4.4644 -0.2035 5.0620 -6.8942 -1.3721 2.5415 -9.7136 0.4451 -0.4564 -16.4170 2.5461 -1.5029 17.5972 0.5865 -0.5169 8.1878 0.0000 0.0000 0.0000 -29.7517 -25.6949 38.7466 132.1560 -52.0880 -95.5374 -0.0000 0.0000 -72.6403 -1.5425 17.3804 -0.4609 -7.1250 0.0000 -0.0000 -27.2186 45.4246 -0.3085 0.0000 0.0000 0.0000 50.4448 15.9326 37.7607 -113.2291 57.8596 -79.9724 0.0000 -0.0000 -89.4297 -5.6251 -3.7415 0.3682 7.1250 -0.0000 -0.0000 17.0011 -33.3609 5.0420
-10.2985 14.9623 2.6788 -177.2800 3.6834 1263.2800 0.0000 0.0000 0.0000 -10.4249 7.6866 -33.2682 9.6033 17.1807 58.1541 0.7909 -5.4057 -15.8522 0.0594 -1.5730 -4.3269 0.0000 0.0000 0.0000 22.4951 -15.7327 -38.6617 -7.6581 -15.8620 51.3218 0.0224 -14.7974 -20.7713 -0.4877 -4.4777 12.4246 1.1835 3.4846 4.6990 -0.1169 5.1545 -6.8137 -1.4763 2.5603 -9.7437 0.5021 -0.4003 -16.5578 2.7203 -1.4729 17.5291 0.6387 -0.4789 8.1912 0.0000 0.0000 0.0000 -27.0788 -22.7786 36.3154 130.1317 -52.9423 -93.9310 -0.0000 0.0000 -70.7402 -2.1466 16.9641 -0.6266 -7.1250 0.0000 -0.0000 -27.5452 44.9805 0.0144 0.0000 0.0000 0.0000 48.3266 14.4071 35.2469 -111.8033 58.1253 -78.7634 0.0000 -0.0000 -89.0146 -5.7671 -3.8705 0.3906 7.1250 -0.0000 -0.0000 16.9148 -33.4912 4.9586
